<mxfile host="app.diagrams.net" modified="2023-11-21T13:42:21.263Z" agent="Mozilla/5.0 (X11; Linux x86_64; rv:109.0) Gecko/20100101 Firefox/119.0" etag="eCwX4kXjtnuYjE94k1f1" version="22.1.3" type="device">
  <diagram name="Page-1" id="C0A0wgZS5OkbCjTZV4SZ">
    <mxGraphModel dx="4381" dy="1112" grid="1" gridSize="10" guides="1" tooltips="1" connect="1" arrows="1" fold="1" page="1" pageScale="1" pageWidth="850" pageHeight="1100" math="0" shadow="0">
      <root>
        <mxCell id="0" />
        <mxCell id="1" parent="0" />
        <mxCell id="9DQhLFcspRZp_Sxz9JZk-2" value="&lt;div style=&quot;font-size: 21px;&quot;&gt;BEGIN:VCALENDAR&lt;/div&gt;&lt;div style=&quot;font-size: 21px;&quot;&gt;VERSION:2.0&lt;/div&gt;&lt;div style=&quot;font-size: 21px;&quot;&gt;PROID:collective/icalendar&lt;br style=&quot;font-size: 21px;&quot;&gt;&lt;/div&gt;&lt;div style=&quot;font-size: 21px;&quot;&gt;BEGIN:VTIMEZONE&lt;/div&gt;&lt;div style=&quot;font-size: 21px;&quot;&gt;TZID:custom_America/New_York&lt;br style=&quot;font-size: 21px;&quot;&gt;LAST-MODIFIED:20050809T050000Z&lt;br style=&quot;font-size: 21px;&quot;&gt;BEGIN:DAYLIGHT&lt;br style=&quot;font-size: 21px;&quot;&gt;DTSTART:19670430T020000&lt;br style=&quot;font-size: 21px;&quot;&gt;RRULE:FREQ=YEARLY;BYMONTH=4;BYDAY=-1SU;UNTIL=19730429T070000Z&lt;br style=&quot;font-size: 21px;&quot;&gt;TZOFFSETFROM:-0500&lt;br style=&quot;font-size: 21px;&quot;&gt;TZOFFSETTO:-0400&lt;br style=&quot;font-size: 21px;&quot;&gt;TZNAME:EDT&lt;br style=&quot;font-size: 21px;&quot;&gt;END:DAYLIGHT&lt;br style=&quot;font-size: 21px;&quot;&gt;BEGIN:STANDARD&lt;br style=&quot;font-size: 21px;&quot;&gt;DTSTART:19671029T020000&lt;br style=&quot;font-size: 21px;&quot;&gt;RRULE:FREQ=YEARLY;BYMONTH=10;BYDAY=-1SU;UNTIL=20061029T060000Z&lt;br style=&quot;font-size: 21px;&quot;&gt;TZOFFSETFROM:-0400&lt;br style=&quot;font-size: 21px;&quot;&gt;TZOFFSETTO:-0500&lt;br style=&quot;font-size: 21px;&quot;&gt;TZNAME:EST&lt;br style=&quot;font-size: 21px;&quot;&gt;END:STANDARD&lt;br style=&quot;font-size: 21px;&quot;&gt;&lt;/div&gt;&lt;div style=&quot;font-size: 21px;&quot;&gt;END:VTIMEZONE&lt;/div&gt;&lt;div style=&quot;font-size: 21px;&quot;&gt;BEGIN:VALARM&lt;/div&gt;&lt;div style=&quot;font-size: 21px;&quot;&gt;TRIGGER;VALUE=DATE-TIME:19970317T133000Z&lt;br&gt;REPEAT:4&lt;br&gt;DURATION:PT15M&lt;br&gt;ACTION:AUDIO&lt;br&gt;ATTACH;FMTTYPE=audio/basic:ftp://example.com/pub/&lt;br&gt;&amp;nbsp;sounds/bell-01.aud&lt;br&gt;&lt;/div&gt;&lt;div style=&quot;font-size: 21px;&quot;&gt;END:VALARM&lt;/div&gt;&lt;div style=&quot;font-size: 21px;&quot;&gt;BEGIN:VFREEBUSY&lt;/div&gt;&lt;div style=&quot;font-size: 21px;&quot;&gt;UID:19970901T082949Z-FA43EF@example.com&lt;br&gt;ORGANIZER:mailto:jane_doe@example.com&lt;br&gt;ATTENDEE:mailto:john_public@example.com&lt;br&gt;DTSTART:19971015T050000Z&lt;br&gt;DTEND:19971016T050000Z&lt;br&gt;DTSTAMP:19970901T083000Z&lt;br&gt;&lt;/div&gt;&lt;div style=&quot;font-size: 21px;&quot;&gt;END:VFREEBUSY&lt;/div&gt;&lt;div style=&quot;font-size: 21px;&quot;&gt;BEGIN:VJOURNAL&lt;/div&gt;&lt;div style=&quot;font-size: 21px;&quot;&gt;UID:19970901T130000Z-123405@example.com&lt;br&gt;DTSTAMP:19970901T130000Z&lt;br&gt;DTSTART;TZID=&quot;Western/Central Europe&quot;;VALUE=DATE-TIME:20211101T160000&lt;br&gt;SUMMARY:Staff meeting minutes&lt;br&gt;DESCRIPTION:1. Staff meeting: Participants include Joe\,&lt;br&gt;&amp;nbsp;Lisa\, and Bob. Aurora project plans were reviewed.&lt;br&gt;&amp;nbsp;There is currently no budget reserves for this project.&lt;br&gt;&amp;nbsp;Lisa will escalate to management. Next meeting on Tuesday.\n&lt;br&gt;&amp;nbsp;2. Telephone Conference: ABC Corp. sales representative&lt;br&gt;&amp;nbsp;called to discuss new printer. Promised to get us a demo by&lt;br&gt;&amp;nbsp;Friday.\n3. Henry Miller (Handsoff Insurance): Car was&lt;br&gt;&amp;nbsp;totaled by tree. Is looking into a loaner car. 555-2323&lt;br&gt;&amp;nbsp;(tel).&lt;br&gt;&lt;/div&gt;&lt;div style=&quot;font-size: 21px;&quot;&gt;END:VJOURNAL&lt;/div&gt;&lt;div style=&quot;font-size: 21px;&quot;&gt;BEGIN:VTODO&lt;/div&gt;&lt;div style=&quot;font-size: 21px;&quot;&gt;DTSTAMP:20160515T164310Z&lt;br&gt;UID:10442264-14b1-47cf-9263-69447c0e0d7f&lt;br&gt;CREATED:20160515T094801Z&lt;br&gt;LAST-MODIFIED:20160515T094801Z&lt;br&gt;SUMMARY:the science of good cooking +book&lt;br&gt;LOCATION:&lt;br&gt;STATUS:COMPLETED&lt;br&gt;PERCENT-COMPLETE:100&lt;br&gt;COMPLETED:20160515T192354&lt;br&gt;&lt;/div&gt;&lt;div style=&quot;font-size: 21px;&quot;&gt;END:VTODO&lt;br style=&quot;font-size: 21px;&quot;&gt;&lt;/div&gt;&lt;div style=&quot;font-size: 21px;&quot;&gt;BEGIN:VEVENT&lt;/div&gt;&lt;div style=&quot;font-size: 21px;&quot;&gt;SUMMARY:New Year&#39;s Day&lt;br style=&quot;font-size: 21px;&quot;&gt;DTSTART:20220101&lt;br style=&quot;font-size: 21px;&quot;&gt;DTEND:20220101&lt;br style=&quot;font-size: 21px;&quot;&gt;DESCRIPTION:Happy New Year!&lt;br style=&quot;font-size: 21px;&quot;&gt;UID:636a0cc1dbd5a1667894465@icalendar&lt;br style=&quot;font-size: 21px;&quot;&gt;DTSTAMP:20221108T080105Z&lt;br style=&quot;font-size: 21px;&quot;&gt;STATUS:CONFIRMED&lt;br style=&quot;font-size: 21px;&quot;&gt;TRANSP:TRANSPARENT&lt;br style=&quot;font-size: 21px;&quot;&gt;SEQUENCE:0&lt;br style=&quot;font-size: 21px;&quot;&gt;&lt;/div&gt;&lt;div style=&quot;font-size: 21px;&quot;&gt;END:VEVENT&lt;/div&gt;&lt;div style=&quot;font-size: 21px;&quot;&gt;END:VCALENDAR&lt;br style=&quot;font-size: 21px;&quot;&gt;&lt;/div&gt;" style="text;align=left;verticalAlign=middle;spacingLeft=20;spacingRight=4;overflow=hidden;points=[[0,0.5],[1,0.5]];portConstraint=eastwest;rotatable=0;whiteSpace=wrap;html=1;fontSize=21;strokeColor=default;" parent="1" vertex="1">
          <mxGeometry x="-170" y="230" width="820" height="1895" as="geometry" />
        </mxCell>
        <mxCell id="9DQhLFcspRZp_Sxz9JZk-3" value="" style="endArrow=none;html=1;rounded=0;exitX=1;exitY=0.5;exitDx=0;exitDy=0;" parent="1" source="9DQhLFcspRZp_Sxz9JZk-4" target="9DQhLFcspRZp_Sxz9JZk-2" edge="1">
          <mxGeometry width="50" height="50" relative="1" as="geometry">
            <mxPoint x="-310" y="-22.5" as="sourcePoint" />
            <mxPoint x="-602.3000000000002" y="798.6750000000002" as="targetPoint" />
          </mxGeometry>
        </mxCell>
        <mxCell id="9DQhLFcspRZp_Sxz9JZk-4" value="parser::components::vcalendar" style="rounded=1;whiteSpace=wrap;html=1;" parent="1" vertex="1">
          <mxGeometry x="-470" y="850" width="190" height="30" as="geometry" />
        </mxCell>
        <mxCell id="9DQhLFcspRZp_Sxz9JZk-5" value="" style="rounded=0;whiteSpace=wrap;html=1;fillColor=#fff2cc;strokeColor=#d6b656;fillOpacity=30;" parent="1" vertex="1">
          <mxGeometry x="-160" y="305" width="790" height="460" as="geometry" />
        </mxCell>
        <mxCell id="9DQhLFcspRZp_Sxz9JZk-6" value="" style="endArrow=none;html=1;rounded=0;exitX=1;exitY=0.5;exitDx=0;exitDy=0;entryX=0;entryY=0.5;entryDx=0;entryDy=0;fillColor=#fff2cc;strokeColor=#d6b656;" parent="1" source="9DQhLFcspRZp_Sxz9JZk-5" target="9DQhLFcspRZp_Sxz9JZk-10" edge="1">
          <mxGeometry width="50" height="50" relative="1" as="geometry">
            <mxPoint x="520" y="220" as="sourcePoint" />
            <mxPoint x="530" y="210" as="targetPoint" />
          </mxGeometry>
        </mxCell>
        <mxCell id="9DQhLFcspRZp_Sxz9JZk-7" value="" style="rounded=0;whiteSpace=wrap;html=1;fillColor=#dae8fc;fillOpacity=30;strokeColor=#6c8ebf;" parent="1" vertex="1">
          <mxGeometry x="-160" y="1815" width="790" height="280" as="geometry" />
        </mxCell>
        <mxCell id="9DQhLFcspRZp_Sxz9JZk-8" value="" style="endArrow=none;html=1;rounded=0;entryX=0;entryY=0.5;entryDx=0;entryDy=0;exitX=1;exitY=0.5;exitDx=0;exitDy=0;fillColor=#dae8fc;strokeColor=#6c8ebf;" parent="1" source="9DQhLFcspRZp_Sxz9JZk-7" target="9DQhLFcspRZp_Sxz9JZk-11" edge="1">
          <mxGeometry width="50" height="50" relative="1" as="geometry">
            <mxPoint x="440" y="290" as="sourcePoint" />
            <mxPoint x="530" y="270" as="targetPoint" />
          </mxGeometry>
        </mxCell>
        <mxCell id="9DQhLFcspRZp_Sxz9JZk-10" value="parser::components::vtimezone" style="rounded=1;whiteSpace=wrap;html=1;fillColor=#fff2cc;strokeColor=#d6b656;" parent="1" vertex="1">
          <mxGeometry x="740" y="370" width="190" height="30" as="geometry" />
        </mxCell>
        <mxCell id="9DQhLFcspRZp_Sxz9JZk-11" value="parser::components::vevent" style="rounded=1;whiteSpace=wrap;html=1;fillColor=#dae8fc;strokeColor=#6c8ebf;" parent="1" vertex="1">
          <mxGeometry x="750" y="2010" width="190" height="30" as="geometry" />
        </mxCell>
        <mxCell id="EXlwdzM9AwAMAQBxPLoC-1" value="BEGIN:VEVENT&lt;div style=&quot;font-size: 20px;&quot;&gt;SUMMARY:New Year&#39;s Day&lt;br&gt;DTSTART:20220101&lt;br&gt;DTEND:20220101&lt;br&gt;DESCRIPTION:Happy New Year!&lt;br&gt;UID:636a0cc1dbd5a1667894465@icalendar&lt;br&gt;DTSTAMP:20221108T080105Z&lt;br&gt;STATUS:CONFIRMED&lt;br&gt;TRANSP:TRANSPARENT&lt;br&gt;SEQUENCE:0&lt;br&gt;&lt;/div&gt;&lt;div style=&quot;font-size: 20px;&quot;&gt;END:VEVENT&lt;/div&gt;" style="text;strokeColor=#6c8ebf;fillColor=#dae8fc;align=left;verticalAlign=middle;spacingLeft=12;spacingRight=4;overflow=hidden;points=[[0,0.5],[1,0.5]];portConstraint=eastwest;rotatable=0;whiteSpace=wrap;html=1;fontSize=20;" parent="1" vertex="1">
          <mxGeometry x="1030" y="1870" width="800" height="280" as="geometry" />
        </mxCell>
        <mxCell id="EXlwdzM9AwAMAQBxPLoC-2" value="" style="endArrow=none;html=1;rounded=0;entryX=0.002;entryY=0.534;entryDx=0;entryDy=0;entryPerimeter=0;exitX=1;exitY=0.5;exitDx=0;exitDy=0;fillColor=#dae8fc;strokeColor=#6c8ebf;" parent="1" source="9DQhLFcspRZp_Sxz9JZk-11" target="EXlwdzM9AwAMAQBxPLoC-1" edge="1">
          <mxGeometry width="50" height="50" relative="1" as="geometry">
            <mxPoint x="690" y="720" as="sourcePoint" />
            <mxPoint x="740" y="670" as="targetPoint" />
          </mxGeometry>
        </mxCell>
        <mxCell id="EXlwdzM9AwAMAQBxPLoC-3" value="" style="rounded=0;whiteSpace=wrap;html=1;fillColor=#f8cecc;strokeColor=#b85450;fillOpacity=30;" parent="1" vertex="1">
          <mxGeometry x="-160" y="765" width="790" height="200" as="geometry" />
        </mxCell>
        <mxCell id="EXlwdzM9AwAMAQBxPLoC-4" value="" style="endArrow=none;html=1;rounded=0;exitX=1;exitY=0.5;exitDx=0;exitDy=0;entryX=0;entryY=0.5;entryDx=0;entryDy=0;fillColor=#f8cecc;strokeColor=#b85450;" parent="1" source="EXlwdzM9AwAMAQBxPLoC-3" target="EXlwdzM9AwAMAQBxPLoC-5" edge="1">
          <mxGeometry width="50" height="50" relative="1" as="geometry">
            <mxPoint x="520" y="270" as="sourcePoint" />
            <mxPoint x="530" y="260" as="targetPoint" />
          </mxGeometry>
        </mxCell>
        <mxCell id="EXlwdzM9AwAMAQBxPLoC-5" value="parser::components::valarm" style="rounded=1;whiteSpace=wrap;html=1;fillColor=#f8cecc;strokeColor=#b85450;" parent="1" vertex="1">
          <mxGeometry x="740" y="775" width="190" height="30" as="geometry" />
        </mxCell>
        <mxCell id="EXlwdzM9AwAMAQBxPLoC-8" value="" style="rounded=0;whiteSpace=wrap;html=1;fillColor=#d5e8d4;strokeColor=#82b366;fillOpacity=30;" parent="1" vertex="1">
          <mxGeometry x="-160" y="965" width="790" height="200" as="geometry" />
        </mxCell>
        <mxCell id="EXlwdzM9AwAMAQBxPLoC-9" value="" style="endArrow=none;html=1;rounded=0;exitX=1;exitY=0.5;exitDx=0;exitDy=0;entryX=0;entryY=0.5;entryDx=0;entryDy=0;fillColor=#d5e8d4;strokeColor=#82b366;" parent="1" source="EXlwdzM9AwAMAQBxPLoC-8" target="EXlwdzM9AwAMAQBxPLoC-10" edge="1">
          <mxGeometry width="50" height="50" relative="1" as="geometry">
            <mxPoint x="520" y="320" as="sourcePoint" />
            <mxPoint x="530" y="310" as="targetPoint" />
          </mxGeometry>
        </mxCell>
        <mxCell id="EXlwdzM9AwAMAQBxPLoC-10" value="parser::components::vfreebusy" style="rounded=1;whiteSpace=wrap;html=1;fillColor=#d5e8d4;strokeColor=#82b366;" parent="1" vertex="1">
          <mxGeometry x="740" y="1060" width="190" height="30" as="geometry" />
        </mxCell>
        <mxCell id="EXlwdzM9AwAMAQBxPLoC-11" value="" style="rounded=0;whiteSpace=wrap;html=1;fillColor=#e1d5e7;strokeColor=#9673a6;fillOpacity=30;" parent="1" vertex="1">
          <mxGeometry x="-160" y="1165" width="790" height="380" as="geometry" />
        </mxCell>
        <mxCell id="EXlwdzM9AwAMAQBxPLoC-12" value="" style="endArrow=none;html=1;rounded=0;exitX=1;exitY=0.5;exitDx=0;exitDy=0;entryX=0;entryY=0.5;entryDx=0;entryDy=0;fillColor=#e1d5e7;strokeColor=#9673a6;" parent="1" source="EXlwdzM9AwAMAQBxPLoC-11" target="EXlwdzM9AwAMAQBxPLoC-13" edge="1">
          <mxGeometry width="50" height="50" relative="1" as="geometry">
            <mxPoint x="520" y="370" as="sourcePoint" />
            <mxPoint x="530" y="360" as="targetPoint" />
          </mxGeometry>
        </mxCell>
        <mxCell id="EXlwdzM9AwAMAQBxPLoC-13" value="parser::components::vjournal" style="rounded=1;whiteSpace=wrap;html=1;fillColor=#e1d5e7;strokeColor=#9673a6;" parent="1" vertex="1">
          <mxGeometry x="740" y="1350" width="190" height="30" as="geometry" />
        </mxCell>
        <mxCell id="EXlwdzM9AwAMAQBxPLoC-14" value="" style="rounded=0;whiteSpace=wrap;html=1;fillColor=#ffe6cc;strokeColor=#d79b00;fillOpacity=30;" parent="1" vertex="1">
          <mxGeometry x="-160" y="1545" width="790" height="270" as="geometry" />
        </mxCell>
        <mxCell id="EXlwdzM9AwAMAQBxPLoC-15" value="" style="endArrow=none;html=1;rounded=0;exitX=1;exitY=0.5;exitDx=0;exitDy=0;entryX=0;entryY=0.5;entryDx=0;entryDy=0;fillColor=#ffe6cc;strokeColor=#d79b00;" parent="1" source="EXlwdzM9AwAMAQBxPLoC-14" target="EXlwdzM9AwAMAQBxPLoC-16" edge="1">
          <mxGeometry width="50" height="50" relative="1" as="geometry">
            <mxPoint x="520" y="420" as="sourcePoint" />
            <mxPoint x="530" y="410" as="targetPoint" />
          </mxGeometry>
        </mxCell>
        <mxCell id="EXlwdzM9AwAMAQBxPLoC-16" value="parser::components::vtodo" style="rounded=1;whiteSpace=wrap;html=1;fillColor=#ffe6cc;strokeColor=#d79b00;" parent="1" vertex="1">
          <mxGeometry x="750" y="1700" width="190" height="30" as="geometry" />
        </mxCell>
        <mxCell id="EXlwdzM9AwAMAQBxPLoC-18" value="BEGIN:VTIMEZONE&lt;br style=&quot;font-size: 21px;&quot;&gt;TZID:custom_America/New_York&lt;br style=&quot;font-size: 21px;&quot;&gt;LAST-MODIFIED:20050809T050000Z&lt;br style=&quot;font-size: 21px;&quot;&gt;BEGIN:DAYLIGHT&lt;br style=&quot;font-size: 21px;&quot;&gt;DTSTART:19670430T020000&lt;br style=&quot;font-size: 21px;&quot;&gt;RRULE:FREQ=YEARLY;BYMONTH=4;BYDAY=-1SU;UNTIL=19730429T070000Z&lt;br style=&quot;font-size: 21px;&quot;&gt;TZOFFSETFROM:-0500&lt;br style=&quot;font-size: 21px;&quot;&gt;TZOFFSETTO:-0400&lt;br style=&quot;font-size: 21px;&quot;&gt;TZNAME:EDT&lt;br style=&quot;font-size: 21px;&quot;&gt;END:DAYLIGHT&lt;br style=&quot;font-size: 21px;&quot;&gt;BEGIN:STANDARD&lt;br style=&quot;font-size: 21px;&quot;&gt;DTSTART:19671029T020000&lt;br style=&quot;font-size: 21px;&quot;&gt;RRULE:FREQ=YEARLY;BYMONTH=10;BYDAY=-1SU;UNTIL=20061029T060000Z&lt;br style=&quot;font-size: 21px;&quot;&gt;TZOFFSETFROM:-0400&lt;br style=&quot;font-size: 21px;&quot;&gt;TZOFFSETTO:-0500&lt;br style=&quot;font-size: 21px;&quot;&gt;TZNAME:EST&lt;br style=&quot;font-size: 21px;&quot;&gt;&lt;div style=&quot;font-size: 21px;&quot;&gt;END:STANDARD&lt;/div&gt;&lt;div style=&quot;font-size: 21px;&quot;&gt;END:VTIMEZONE&lt;br style=&quot;font-size: 21px;&quot;&gt;&lt;/div&gt;" style="rounded=0;whiteSpace=wrap;html=1;fillColor=#fff2cc;strokeColor=#d6b656;align=left;verticalAlign=middle;fontSize=21;spacingLeft=12;glass=0;" parent="1" vertex="1">
          <mxGeometry x="1030" y="130" width="800" height="510" as="geometry" />
        </mxCell>
        <mxCell id="EXlwdzM9AwAMAQBxPLoC-20" value="" style="endArrow=none;html=1;rounded=0;entryX=0;entryY=0.5;entryDx=0;entryDy=0;exitX=1;exitY=0.5;exitDx=0;exitDy=0;fillColor=#fff2cc;strokeColor=#d6b656;" parent="1" source="9DQhLFcspRZp_Sxz9JZk-10" target="EXlwdzM9AwAMAQBxPLoC-18" edge="1">
          <mxGeometry width="50" height="50" relative="1" as="geometry">
            <mxPoint x="750" y="610" as="sourcePoint" />
            <mxPoint x="730" y="610" as="targetPoint" />
          </mxGeometry>
        </mxCell>
        <mxCell id="BuKQUZ17ysFkObObpCgt-1" value="" style="rounded=0;whiteSpace=wrap;html=1;fillColor=none;" parent="1" vertex="1">
          <mxGeometry x="1040" y="210" width="780" height="200" as="geometry" />
        </mxCell>
        <mxCell id="BuKQUZ17ysFkObObpCgt-2" value="" style="rounded=0;whiteSpace=wrap;html=1;fillColor=none;" parent="1" vertex="1">
          <mxGeometry x="1040" y="410" width="780" height="200" as="geometry" />
        </mxCell>
        <mxCell id="BuKQUZ17ysFkObObpCgt-4" value="&lt;div&gt;parser::components::daylight&lt;/div&gt;" style="rounded=1;whiteSpace=wrap;html=1;fillColor=#fff2cc;strokeColor=#d6b656;" parent="1" vertex="1">
          <mxGeometry x="1880" y="265" width="190" height="30" as="geometry" />
        </mxCell>
        <mxCell id="BuKQUZ17ysFkObObpCgt-5" value="" style="endArrow=none;html=1;rounded=0;exitX=1;exitY=0.5;exitDx=0;exitDy=0;entryX=0;entryY=0.5;entryDx=0;entryDy=0;" parent="1" source="BuKQUZ17ysFkObObpCgt-1" target="BuKQUZ17ysFkObObpCgt-4" edge="1">
          <mxGeometry width="50" height="50" relative="1" as="geometry">
            <mxPoint x="1430" y="300" as="sourcePoint" />
            <mxPoint x="1480" y="250" as="targetPoint" />
          </mxGeometry>
        </mxCell>
        <mxCell id="BuKQUZ17ysFkObObpCgt-6" value="&lt;div&gt;parser::components::standard&lt;/div&gt;" style="rounded=1;whiteSpace=wrap;html=1;fillColor=#fff2cc;strokeColor=#d6b656;" parent="1" vertex="1">
          <mxGeometry x="1890" y="507.5" width="190" height="30" as="geometry" />
        </mxCell>
        <mxCell id="BuKQUZ17ysFkObObpCgt-7" value="" style="endArrow=none;html=1;rounded=0;entryX=0;entryY=0.5;entryDx=0;entryDy=0;exitX=1.01;exitY=0.463;exitDx=0;exitDy=0;exitPerimeter=0;" parent="1" source="BuKQUZ17ysFkObObpCgt-2" target="BuKQUZ17ysFkObObpCgt-6" edge="1">
          <mxGeometry width="50" height="50" relative="1" as="geometry">
            <mxPoint x="1410" y="470" as="sourcePoint" />
            <mxPoint x="1460" y="420" as="targetPoint" />
          </mxGeometry>
        </mxCell>
        <mxCell id="BuKQUZ17ysFkObObpCgt-8" value="BEGIN:DAYLIGHT&lt;br style=&quot;font-size: 21px;&quot;&gt;DTSTART:19670430T020000&lt;br style=&quot;font-size: 21px;&quot;&gt;RRULE:FREQ=YEARLY;BYMONTH=4;BYDAY=-1SU;UNTIL=19730429T070000Z&lt;br style=&quot;font-size: 21px;&quot;&gt;TZOFFSETFROM:-0500&lt;br style=&quot;font-size: 21px;&quot;&gt;TZOFFSETTO:-0400&lt;br style=&quot;font-size: 21px;&quot;&gt;TZNAME:EDT&lt;br style=&quot;font-size: 21px;&quot;&gt;END:DAYLIGHT" style="rounded=0;whiteSpace=wrap;html=1;fillColor=#fff2cc;strokeColor=#d6b656;align=left;verticalAlign=middle;fontSize=21;spacingLeft=12;" parent="1" vertex="1">
          <mxGeometry x="2120" y="172.5" width="810" height="187.5" as="geometry" />
        </mxCell>
        <mxCell id="BuKQUZ17ysFkObObpCgt-9" value="BEGIN:STANDARD&lt;br style=&quot;font-size: 21px;&quot;&gt;DTSTART:19671029T020000&lt;br style=&quot;font-size: 21px;&quot;&gt;RRULE:FREQ=YEARLY;BYMONTH=10;BYDAY=-1SU;UNTIL=20061029T060000Z&lt;br style=&quot;font-size: 21px;&quot;&gt;TZOFFSETFROM:-0400&lt;br style=&quot;font-size: 21px;&quot;&gt;TZOFFSETTO:-0500&lt;br style=&quot;font-size: 21px;&quot;&gt;TZNAME:EST&lt;br style=&quot;font-size: 21px;&quot;&gt;&lt;div style=&quot;font-size: 21px;&quot;&gt;END:STANDARD&lt;/div&gt;" style="rounded=0;whiteSpace=wrap;html=1;fillColor=#fff2cc;strokeColor=#d6b656;align=left;verticalAlign=middle;fontSize=21;spacingLeft=12;" parent="1" vertex="1">
          <mxGeometry x="2120" y="415" width="810" height="215" as="geometry" />
        </mxCell>
        <mxCell id="BuKQUZ17ysFkObObpCgt-10" value="" style="endArrow=none;html=1;rounded=0;exitX=1;exitY=0.5;exitDx=0;exitDy=0;entryX=0;entryY=0.5;entryDx=0;entryDy=0;" parent="1" source="BuKQUZ17ysFkObObpCgt-6" target="BuKQUZ17ysFkObObpCgt-9" edge="1">
          <mxGeometry width="50" height="50" relative="1" as="geometry">
            <mxPoint x="2070" y="535" as="sourcePoint" />
            <mxPoint x="2120" y="485" as="targetPoint" />
          </mxGeometry>
        </mxCell>
        <mxCell id="BuKQUZ17ysFkObObpCgt-11" value="" style="endArrow=none;html=1;rounded=0;entryX=0;entryY=0.5;entryDx=0;entryDy=0;exitX=1;exitY=0.5;exitDx=0;exitDy=0;" parent="1" source="BuKQUZ17ysFkObObpCgt-4" target="BuKQUZ17ysFkObObpCgt-8" edge="1">
          <mxGeometry width="50" height="50" relative="1" as="geometry">
            <mxPoint x="1970" y="465" as="sourcePoint" />
            <mxPoint x="2020" y="415" as="targetPoint" />
          </mxGeometry>
        </mxCell>
        <mxCell id="BuKQUZ17ysFkObObpCgt-12" value="" style="rounded=0;whiteSpace=wrap;html=1;fillColor=none;" parent="1" vertex="1">
          <mxGeometry x="2130" y="220" width="770" height="25" as="geometry" />
        </mxCell>
        <mxCell id="BuKQUZ17ysFkObObpCgt-14" value="&lt;div&gt;parser::recurence::rrule&lt;/div&gt;" style="rounded=1;whiteSpace=wrap;html=1;fillColor=#fff2cc;strokeColor=#d6b656;" parent="1" vertex="1">
          <mxGeometry x="3020" y="172.5" width="190" height="30" as="geometry" />
        </mxCell>
        <mxCell id="BuKQUZ17ysFkObObpCgt-15" value="" style="endArrow=none;html=1;rounded=0;entryX=0;entryY=0.5;entryDx=0;entryDy=0;exitX=1;exitY=0.5;exitDx=0;exitDy=0;" parent="1" source="BuKQUZ17ysFkObObpCgt-12" target="BuKQUZ17ysFkObObpCgt-14" edge="1">
          <mxGeometry width="50" height="50" relative="1" as="geometry">
            <mxPoint x="2280" y="335" as="sourcePoint" />
            <mxPoint x="2330" y="285" as="targetPoint" />
          </mxGeometry>
        </mxCell>
        <mxCell id="BuKQUZ17ysFkObObpCgt-19" value="&lt;div&gt;parser::timezone::tzoffsetfrom&lt;/div&gt;" style="rounded=1;whiteSpace=wrap;html=1;fillColor=#fff2cc;strokeColor=#d6b656;" parent="1" vertex="1">
          <mxGeometry x="3020" y="230" width="190" height="30" as="geometry" />
        </mxCell>
        <mxCell id="BuKQUZ17ysFkObObpCgt-20" value="" style="rounded=0;whiteSpace=wrap;html=1;fillColor=none;" parent="1" vertex="1">
          <mxGeometry x="2130" y="245" width="770" height="25" as="geometry" />
        </mxCell>
        <mxCell id="BuKQUZ17ysFkObObpCgt-21" value="" style="endArrow=none;html=1;rounded=0;entryX=0;entryY=0.5;entryDx=0;entryDy=0;exitX=1;exitY=0.5;exitDx=0;exitDy=0;" parent="1" source="BuKQUZ17ysFkObObpCgt-20" target="BuKQUZ17ysFkObObpCgt-19" edge="1">
          <mxGeometry width="50" height="50" relative="1" as="geometry">
            <mxPoint x="2280" y="385" as="sourcePoint" />
            <mxPoint x="2330" y="335" as="targetPoint" />
          </mxGeometry>
        </mxCell>
        <mxCell id="BuKQUZ17ysFkObObpCgt-22" value="" style="rounded=0;whiteSpace=wrap;html=1;fillColor=none;" parent="1" vertex="1">
          <mxGeometry x="2130" y="270" width="770" height="30" as="geometry" />
        </mxCell>
        <mxCell id="BuKQUZ17ysFkObObpCgt-23" value="" style="endArrow=none;html=1;rounded=0;entryX=0;entryY=0.5;entryDx=0;entryDy=0;exitX=1;exitY=0.5;exitDx=0;exitDy=0;" parent="1" source="BuKQUZ17ysFkObObpCgt-22" target="BuKQUZ17ysFkObObpCgt-24" edge="1">
          <mxGeometry width="50" height="50" relative="1" as="geometry">
            <mxPoint x="2280" y="415" as="sourcePoint" />
            <mxPoint x="2330" y="365" as="targetPoint" />
          </mxGeometry>
        </mxCell>
        <mxCell id="BuKQUZ17ysFkObObpCgt-24" value="&lt;div&gt;parser::timezone::tzoffsetto&lt;/div&gt;" style="rounded=1;whiteSpace=wrap;html=1;fillColor=#fff2cc;strokeColor=#d6b656;" parent="1" vertex="1">
          <mxGeometry x="3020" y="290" width="190" height="30" as="geometry" />
        </mxCell>
        <mxCell id="BuKQUZ17ysFkObObpCgt-25" value="" style="rounded=0;whiteSpace=wrap;html=1;fillColor=none;" parent="1" vertex="1">
          <mxGeometry x="2130" y="300" width="770" height="30" as="geometry" />
        </mxCell>
        <mxCell id="BuKQUZ17ysFkObObpCgt-26" value="" style="endArrow=none;html=1;rounded=0;entryX=0;entryY=0.5;entryDx=0;entryDy=0;exitX=1;exitY=0.5;exitDx=0;exitDy=0;" parent="1" source="BuKQUZ17ysFkObObpCgt-25" target="BuKQUZ17ysFkObObpCgt-27" edge="1">
          <mxGeometry width="50" height="50" relative="1" as="geometry">
            <mxPoint x="2280" y="445" as="sourcePoint" />
            <mxPoint x="2330" y="395" as="targetPoint" />
          </mxGeometry>
        </mxCell>
        <mxCell id="BuKQUZ17ysFkObObpCgt-27" value="&lt;div&gt;parser::timezone::tzname&lt;/div&gt;" style="rounded=1;whiteSpace=wrap;html=1;fillColor=#fff2cc;strokeColor=#d6b656;" parent="1" vertex="1">
          <mxGeometry x="3020" y="340" width="190" height="30" as="geometry" />
        </mxCell>
        <mxCell id="BuKQUZ17ysFkObObpCgt-40" value="BEGIN:VALARM&lt;br style=&quot;font-size: 21px;&quot;&gt;TRIGGER;VALUE=DATE-TIME:19970317T133000Z&lt;br style=&quot;font-size: 21px;&quot;&gt;REPEAT:4&lt;br style=&quot;font-size: 21px;&quot;&gt;DURATION:PT15M&lt;br style=&quot;font-size: 21px;&quot;&gt;ACTION:AUDIO&lt;br style=&quot;font-size: 21px;&quot;&gt;ATTACH;FMTTYPE=audio/basic:ftp://example.com/pub/&lt;br style=&quot;font-size: 21px;&quot;&gt;&amp;nbsp;sounds/bell-01.aud&lt;br style=&quot;font-size: 21px;&quot;&gt;END:VALARM" style="rounded=0;whiteSpace=wrap;html=1;fillColor=#f8cecc;strokeColor=#b85450;fillOpacity=100;fontSize=21;align=left;spacingLeft=12;" parent="1" vertex="1">
          <mxGeometry x="1030" y="670" width="800" height="240" as="geometry" />
        </mxCell>
        <mxCell id="BuKQUZ17ysFkObObpCgt-41" value="" style="endArrow=none;html=1;rounded=0;exitX=1;exitY=0.5;exitDx=0;exitDy=0;fillColor=#f8cecc;strokeColor=#b85450;entryX=0;entryY=0.5;entryDx=0;entryDy=0;" parent="1" source="EXlwdzM9AwAMAQBxPLoC-5" target="BuKQUZ17ysFkObObpCgt-40" edge="1">
          <mxGeometry width="50" height="50" relative="1" as="geometry">
            <mxPoint x="990" y="370" as="sourcePoint" />
            <mxPoint x="960" y="500" as="targetPoint" />
          </mxGeometry>
        </mxCell>
        <mxCell id="BuKQUZ17ysFkObObpCgt-42" value="BEGIN:VFREEBUSY&lt;br style=&quot;font-size: 21px;&quot;&gt;UID:19970901T082949Z-FA43EF@example.com&lt;br style=&quot;font-size: 21px;&quot;&gt;ORGANIZER:mailto:jane_doe@example.com&lt;br style=&quot;font-size: 21px;&quot;&gt;ATTENDEE:mailto:john_public@example.com&lt;br style=&quot;font-size: 21px;&quot;&gt;DTSTART:19971015T050000Z&lt;br style=&quot;font-size: 21px;&quot;&gt;DTEND:19971016T050000Z&lt;br style=&quot;font-size: 21px;&quot;&gt;DTSTAMP:19970901T083000Z&lt;br style=&quot;font-size: 21px;&quot;&gt;END:VFREEBUSY&lt;br style=&quot;font-size: 21px;&quot;&gt;" style="rounded=0;whiteSpace=wrap;html=1;fontSize=21;align=left;fillColor=#d5e8d4;strokeColor=#82b366;spacingLeft=12;" parent="1" vertex="1">
          <mxGeometry x="1030" y="940" width="800" height="230" as="geometry" />
        </mxCell>
        <mxCell id="BuKQUZ17ysFkObObpCgt-43" value="" style="endArrow=none;html=1;rounded=0;exitX=1;exitY=0.5;exitDx=0;exitDy=0;entryX=-0.001;entryY=0.548;entryDx=0;entryDy=0;entryPerimeter=0;fillColor=#d5e8d4;strokeColor=#82b366;" parent="1" source="EXlwdzM9AwAMAQBxPLoC-10" target="BuKQUZ17ysFkObObpCgt-42" edge="1">
          <mxGeometry width="50" height="50" relative="1" as="geometry">
            <mxPoint x="1190" y="920" as="sourcePoint" />
            <mxPoint x="1240" y="870" as="targetPoint" />
          </mxGeometry>
        </mxCell>
        <mxCell id="BuKQUZ17ysFkObObpCgt-44" value="UID:19970901T130000Z-123405@example.com&lt;br style=&quot;font-size: 21px;&quot;&gt;DTSTAMP:19970901T130000Z&lt;br style=&quot;font-size: 21px;&quot;&gt;DTSTART;TZID=&quot;Western/Central Europe&quot;;VALUE=DATE-TIME:20211101T160000&lt;br style=&quot;font-size: 21px;&quot;&gt;SUMMARY:Staff meeting minutes&lt;br style=&quot;font-size: 21px;&quot;&gt;DESCRIPTION:1. Staff meeting: Participants include Joe\,&lt;br style=&quot;font-size: 21px;&quot;&gt;&amp;nbsp;Lisa\, and Bob. Aurora project plans were reviewed.&lt;br style=&quot;font-size: 21px;&quot;&gt;&amp;nbsp;There is currently no budget reserves for this project.&lt;br style=&quot;font-size: 21px;&quot;&gt;&amp;nbsp;Lisa will escalate to management. Next meeting on Tuesday.\n&lt;br style=&quot;font-size: 21px;&quot;&gt;&amp;nbsp;2. Telephone Conference: ABC Corp. sales representative&lt;br style=&quot;font-size: 21px;&quot;&gt;&amp;nbsp;called to discuss new printer. Promised to get us a demo by&lt;br style=&quot;font-size: 21px;&quot;&gt;&amp;nbsp;Friday.\n3. Henry Miller (Handsoff Insurance): Car was&lt;br style=&quot;font-size: 21px;&quot;&gt;&amp;nbsp;totaled by tree. Is looking into a loaner car. 555-2323&lt;br style=&quot;font-size: 21px;&quot;&gt;&amp;nbsp;(tel)." style="rounded=0;whiteSpace=wrap;html=1;fontSize=21;align=left;spacingLeft=21;fillColor=#e1d5e7;strokeColor=#9673a6;" parent="1" vertex="1">
          <mxGeometry x="1030" y="1190" width="800" height="355" as="geometry" />
        </mxCell>
        <mxCell id="BuKQUZ17ysFkObObpCgt-45" value="" style="endArrow=none;html=1;rounded=0;entryX=-0.002;entryY=0.449;entryDx=0;entryDy=0;entryPerimeter=0;exitX=1;exitY=0.5;exitDx=0;exitDy=0;fillColor=#e1d5e7;strokeColor=#9673a6;" parent="1" source="EXlwdzM9AwAMAQBxPLoC-13" target="BuKQUZ17ysFkObObpCgt-44" edge="1">
          <mxGeometry width="50" height="50" relative="1" as="geometry">
            <mxPoint x="270" y="1300" as="sourcePoint" />
            <mxPoint x="320" y="1250" as="targetPoint" />
          </mxGeometry>
        </mxCell>
        <mxCell id="BuKQUZ17ysFkObObpCgt-46" value="&lt;div&gt;BEGIN:VTODO&lt;br&gt;&lt;/div&gt;&lt;div&gt;DTSTAMP:20160515T164310Z&lt;/div&gt;UID:10442264-14b1-47cf-9263-69447c0e0d7f&lt;br style=&quot;font-size: 21px;&quot;&gt;CREATED:20160515T094801Z&lt;br style=&quot;font-size: 21px;&quot;&gt;LAST-MODIFIED:20160515T094801Z&lt;br style=&quot;font-size: 21px;&quot;&gt;SUMMARY:the science of good cooking +book&lt;br style=&quot;font-size: 21px;&quot;&gt;LOCATION:&lt;br style=&quot;font-size: 21px;&quot;&gt;STATUS:COMPLETED&lt;br style=&quot;font-size: 21px;&quot;&gt;PERCENT-COMPLETE:100&lt;br style=&quot;font-size: 21px;&quot;&gt;&lt;div&gt;COMPLETED:20160515T192354&lt;/div&gt;&lt;div&gt;END:VTODO&lt;br&gt;&lt;/div&gt;" style="rounded=0;whiteSpace=wrap;html=1;fillColor=#ffe6cc;strokeColor=#d79b00;fontSize=21;align=left;spacingLeft=12;" parent="1" vertex="1">
          <mxGeometry x="1030" y="1570" width="800" height="290" as="geometry" />
        </mxCell>
        <mxCell id="BuKQUZ17ysFkObObpCgt-49" value="" style="endArrow=none;html=1;rounded=0;exitX=1;exitY=0.5;exitDx=0;exitDy=0;entryX=-0.003;entryY=0.545;entryDx=0;entryDy=0;entryPerimeter=0;fillColor=#ffe6cc;strokeColor=#d79b00;" parent="1" source="EXlwdzM9AwAMAQBxPLoC-16" target="BuKQUZ17ysFkObObpCgt-46" edge="1">
          <mxGeometry width="50" height="50" relative="1" as="geometry">
            <mxPoint x="1220" y="1490" as="sourcePoint" />
            <mxPoint x="1270" y="1440" as="targetPoint" />
          </mxGeometry>
        </mxCell>
        <mxCell id="SGO69OwYdjPEWRcPBe-a-1" value="" style="rounded=0;whiteSpace=wrap;html=1;fillColor=none;" vertex="1" parent="1">
          <mxGeometry x="1040" y="715" width="780" height="25" as="geometry" />
        </mxCell>
        <mxCell id="SGO69OwYdjPEWRcPBe-a-2" value="" style="rounded=0;whiteSpace=wrap;html=1;fillColor=none;" vertex="1" parent="1">
          <mxGeometry x="1040" y="740" width="780" height="25" as="geometry" />
        </mxCell>
        <mxCell id="SGO69OwYdjPEWRcPBe-a-3" value="" style="rounded=0;whiteSpace=wrap;html=1;fillColor=none;" vertex="1" parent="1">
          <mxGeometry x="1040" y="765" width="780" height="25" as="geometry" />
        </mxCell>
        <mxCell id="SGO69OwYdjPEWRcPBe-a-4" value="" style="rounded=0;whiteSpace=wrap;html=1;fillColor=none;" vertex="1" parent="1">
          <mxGeometry x="1040" y="790" width="780" height="25" as="geometry" />
        </mxCell>
        <mxCell id="SGO69OwYdjPEWRcPBe-a-5" value="" style="rounded=0;whiteSpace=wrap;html=1;fillColor=none;" vertex="1" parent="1">
          <mxGeometry x="1040" y="815" width="780" height="45" as="geometry" />
        </mxCell>
        <mxCell id="SGO69OwYdjPEWRcPBe-a-7" value="&lt;div&gt;parser::alarm::trigger&lt;/div&gt;" style="rounded=1;whiteSpace=wrap;html=1;fillColor=#f8cecc;strokeColor=#b85450;" vertex="1" parent="1">
          <mxGeometry x="1890" y="690" width="190" height="30" as="geometry" />
        </mxCell>
        <mxCell id="SGO69OwYdjPEWRcPBe-a-8" value="&lt;div&gt;parser::alarm::repeat&lt;/div&gt;" style="rounded=1;whiteSpace=wrap;html=1;fillColor=#f8cecc;strokeColor=#b85450;" vertex="1" parent="1">
          <mxGeometry x="1890" y="737.5" width="190" height="30" as="geometry" />
        </mxCell>
        <mxCell id="SGO69OwYdjPEWRcPBe-a-9" value="&lt;div&gt;parser::alarm::action&lt;/div&gt;" style="rounded=1;whiteSpace=wrap;html=1;fillColor=#f8cecc;strokeColor=#b85450;" vertex="1" parent="1">
          <mxGeometry x="1890" y="787.5" width="190" height="30" as="geometry" />
        </mxCell>
        <mxCell id="SGO69OwYdjPEWRcPBe-a-10" value="&lt;div&gt;parser::descriptive::attach&lt;/div&gt;" style="rounded=1;whiteSpace=wrap;html=1;fillColor=#f8cecc;strokeColor=#b85450;" vertex="1" parent="1">
          <mxGeometry x="1890" y="840" width="190" height="30" as="geometry" />
        </mxCell>
        <mxCell id="SGO69OwYdjPEWRcPBe-a-11" value="" style="endArrow=none;html=1;rounded=0;entryX=0;entryY=0.5;entryDx=0;entryDy=0;exitX=1;exitY=0.5;exitDx=0;exitDy=0;fillColor=#f8cecc;strokeColor=#b85450;" edge="1" parent="1" source="SGO69OwYdjPEWRcPBe-a-1" target="SGO69OwYdjPEWRcPBe-a-7">
          <mxGeometry width="50" height="50" relative="1" as="geometry">
            <mxPoint x="1530" y="860" as="sourcePoint" />
            <mxPoint x="1580" y="810" as="targetPoint" />
          </mxGeometry>
        </mxCell>
        <mxCell id="SGO69OwYdjPEWRcPBe-a-12" value="" style="endArrow=none;html=1;rounded=0;entryX=0;entryY=0.5;entryDx=0;entryDy=0;exitX=1;exitY=0.5;exitDx=0;exitDy=0;fillColor=#f8cecc;strokeColor=#b85450;" edge="1" parent="1" source="SGO69OwYdjPEWRcPBe-a-2" target="SGO69OwYdjPEWRcPBe-a-8">
          <mxGeometry width="50" height="50" relative="1" as="geometry">
            <mxPoint x="1860" y="770" as="sourcePoint" />
            <mxPoint x="1930" y="747" as="targetPoint" />
          </mxGeometry>
        </mxCell>
        <mxCell id="SGO69OwYdjPEWRcPBe-a-13" value="" style="endArrow=none;html=1;rounded=0;entryX=0;entryY=0.5;entryDx=0;entryDy=0;exitX=1;exitY=0.5;exitDx=0;exitDy=0;fillColor=#f8cecc;strokeColor=#b85450;" edge="1" parent="1" source="SGO69OwYdjPEWRcPBe-a-3" target="SGO69OwYdjPEWRcPBe-a-9">
          <mxGeometry width="50" height="50" relative="1" as="geometry">
            <mxPoint x="1850" y="800" as="sourcePoint" />
            <mxPoint x="1920" y="777" as="targetPoint" />
          </mxGeometry>
        </mxCell>
        <mxCell id="SGO69OwYdjPEWRcPBe-a-14" value="" style="endArrow=none;html=1;rounded=0;entryX=0;entryY=0.5;entryDx=0;entryDy=0;exitX=1;exitY=0.5;exitDx=0;exitDy=0;fillColor=#f8cecc;strokeColor=#b85450;" edge="1" parent="1" source="SGO69OwYdjPEWRcPBe-a-5" target="SGO69OwYdjPEWRcPBe-a-10">
          <mxGeometry width="50" height="50" relative="1" as="geometry">
            <mxPoint x="1850" y="840" as="sourcePoint" />
            <mxPoint x="1920" y="817" as="targetPoint" />
          </mxGeometry>
        </mxCell>
        <mxCell id="SGO69OwYdjPEWRcPBe-a-15" value="" style="rounded=0;whiteSpace=wrap;html=1;fillColor=none;" vertex="1" parent="1">
          <mxGeometry x="1040" y="980" width="780" height="25" as="geometry" />
        </mxCell>
        <mxCell id="SGO69OwYdjPEWRcPBe-a-16" value="" style="rounded=0;whiteSpace=wrap;html=1;fillColor=none;" vertex="1" parent="1">
          <mxGeometry x="1040" y="1005" width="780" height="25" as="geometry" />
        </mxCell>
        <mxCell id="SGO69OwYdjPEWRcPBe-a-17" value="" style="rounded=0;whiteSpace=wrap;html=1;fillColor=none;" vertex="1" parent="1">
          <mxGeometry x="1040" y="1030" width="780" height="25" as="geometry" />
        </mxCell>
        <mxCell id="SGO69OwYdjPEWRcPBe-a-18" value="" style="rounded=0;whiteSpace=wrap;html=1;fillColor=none;" vertex="1" parent="1">
          <mxGeometry x="1040" y="1055" width="780" height="25" as="geometry" />
        </mxCell>
        <mxCell id="SGO69OwYdjPEWRcPBe-a-19" value="" style="rounded=0;whiteSpace=wrap;html=1;fillColor=none;" vertex="1" parent="1">
          <mxGeometry x="1040" y="1080" width="780" height="25" as="geometry" />
        </mxCell>
        <mxCell id="SGO69OwYdjPEWRcPBe-a-20" value="" style="rounded=0;whiteSpace=wrap;html=1;fillColor=none;" vertex="1" parent="1">
          <mxGeometry x="1040" y="1105" width="780" height="25" as="geometry" />
        </mxCell>
        <mxCell id="SGO69OwYdjPEWRcPBe-a-21" value="" style="rounded=0;whiteSpace=wrap;html=1;fillColor=none;" vertex="1" parent="1">
          <mxGeometry x="1040" y="1280" width="780" height="25" as="geometry" />
        </mxCell>
        <mxCell id="SGO69OwYdjPEWRcPBe-a-22" value="" style="rounded=0;whiteSpace=wrap;html=1;fillColor=none;" vertex="1" parent="1">
          <mxGeometry x="1040" y="1305" width="780" height="225" as="geometry" />
        </mxCell>
        <mxCell id="SGO69OwYdjPEWRcPBe-a-23" value="" style="rounded=0;whiteSpace=wrap;html=1;fillColor=none;" vertex="1" parent="1">
          <mxGeometry x="1040" y="1675" width="780" height="25" as="geometry" />
        </mxCell>
        <mxCell id="SGO69OwYdjPEWRcPBe-a-24" value="" style="rounded=0;whiteSpace=wrap;html=1;fillColor=none;" vertex="1" parent="1">
          <mxGeometry x="1040" y="1730" width="780" height="25" as="geometry" />
        </mxCell>
        <mxCell id="SGO69OwYdjPEWRcPBe-a-25" value="" style="rounded=0;whiteSpace=wrap;html=1;fillColor=none;" vertex="1" parent="1">
          <mxGeometry x="1040" y="1755" width="780" height="25" as="geometry" />
        </mxCell>
        <mxCell id="SGO69OwYdjPEWRcPBe-a-26" value="" style="rounded=0;whiteSpace=wrap;html=1;fillColor=none;" vertex="1" parent="1">
          <mxGeometry x="1040" y="1780" width="780" height="25" as="geometry" />
        </mxCell>
        <mxCell id="SGO69OwYdjPEWRcPBe-a-27" value="" style="rounded=0;whiteSpace=wrap;html=1;fillColor=none;" vertex="1" parent="1">
          <mxGeometry x="1040" y="1805" width="780" height="25" as="geometry" />
        </mxCell>
        <mxCell id="SGO69OwYdjPEWRcPBe-a-28" value="" style="rounded=0;whiteSpace=wrap;html=1;fillColor=none;" vertex="1" parent="1">
          <mxGeometry x="1040" y="2070" width="780" height="25" as="geometry" />
        </mxCell>
        <mxCell id="SGO69OwYdjPEWRcPBe-a-29" value="" style="rounded=0;whiteSpace=wrap;html=1;fillColor=none;" vertex="1" parent="1">
          <mxGeometry x="1040" y="2095" width="780" height="25" as="geometry" />
        </mxCell>
        <mxCell id="SGO69OwYdjPEWRcPBe-a-30" value="&lt;div&gt;parser::relationship::uid&lt;/div&gt;" style="rounded=1;whiteSpace=wrap;html=1;fillColor=#d5e8d4;strokeColor=#82b366;" vertex="1" parent="1">
          <mxGeometry x="1890" y="910" width="190" height="30" as="geometry" />
        </mxCell>
        <mxCell id="SGO69OwYdjPEWRcPBe-a-31" value="&lt;div&gt;parser::relationship::organizer&lt;/div&gt;" style="rounded=1;whiteSpace=wrap;html=1;fillColor=#d5e8d4;strokeColor=#82b366;" vertex="1" parent="1">
          <mxGeometry x="1890" y="960" width="190" height="30" as="geometry" />
        </mxCell>
        <mxCell id="SGO69OwYdjPEWRcPBe-a-32" value="&lt;div&gt;parser::relationship::attendee&lt;/div&gt;" style="rounded=1;whiteSpace=wrap;html=1;fillColor=#d5e8d4;strokeColor=#82b366;" vertex="1" parent="1">
          <mxGeometry x="1890" y="1010" width="190" height="30" as="geometry" />
        </mxCell>
        <mxCell id="SGO69OwYdjPEWRcPBe-a-33" value="&lt;div&gt;parser::datetime::dtstart&lt;/div&gt;" style="rounded=1;whiteSpace=wrap;html=1;fillColor=#d5e8d4;strokeColor=#82b366;" vertex="1" parent="1">
          <mxGeometry x="1890" y="1060" width="190" height="30" as="geometry" />
        </mxCell>
        <mxCell id="SGO69OwYdjPEWRcPBe-a-34" value="&lt;div&gt;parser::datetime::dtend&lt;/div&gt;" style="rounded=1;whiteSpace=wrap;html=1;fillColor=#d5e8d4;strokeColor=#82b366;" vertex="1" parent="1">
          <mxGeometry x="1890" y="1110" width="190" height="30" as="geometry" />
        </mxCell>
        <mxCell id="SGO69OwYdjPEWRcPBe-a-36" value="&lt;div&gt;parser::change::dtstamp&lt;/div&gt;" style="rounded=1;whiteSpace=wrap;html=1;fillColor=#d5e8d4;strokeColor=#82b366;" vertex="1" parent="1">
          <mxGeometry x="1890" y="1162.5" width="190" height="30" as="geometry" />
        </mxCell>
        <mxCell id="SGO69OwYdjPEWRcPBe-a-37" value="" style="endArrow=none;html=1;rounded=0;entryX=0;entryY=0.5;entryDx=0;entryDy=0;exitX=1;exitY=0.5;exitDx=0;exitDy=0;fillColor=#d5e8d4;strokeColor=#82b366;" edge="1" parent="1" source="SGO69OwYdjPEWRcPBe-a-15" target="SGO69OwYdjPEWRcPBe-a-30">
          <mxGeometry width="50" height="50" relative="1" as="geometry">
            <mxPoint x="1600" y="990" as="sourcePoint" />
            <mxPoint x="1650" y="940" as="targetPoint" />
          </mxGeometry>
        </mxCell>
        <mxCell id="SGO69OwYdjPEWRcPBe-a-38" value="" style="endArrow=none;html=1;rounded=0;entryX=0;entryY=0.5;entryDx=0;entryDy=0;exitX=1;exitY=0.5;exitDx=0;exitDy=0;fillColor=#d5e8d4;strokeColor=#82b366;" edge="1" parent="1" source="SGO69OwYdjPEWRcPBe-a-16" target="SGO69OwYdjPEWRcPBe-a-31">
          <mxGeometry width="50" height="50" relative="1" as="geometry">
            <mxPoint x="1840" y="1010" as="sourcePoint" />
            <mxPoint x="1910" y="942" as="targetPoint" />
          </mxGeometry>
        </mxCell>
        <mxCell id="SGO69OwYdjPEWRcPBe-a-39" value="" style="endArrow=none;html=1;rounded=0;entryX=0;entryY=0.5;entryDx=0;entryDy=0;exitX=1;exitY=0.5;exitDx=0;exitDy=0;fillColor=#d5e8d4;strokeColor=#82b366;" edge="1" parent="1" source="SGO69OwYdjPEWRcPBe-a-17" target="SGO69OwYdjPEWRcPBe-a-32">
          <mxGeometry width="50" height="50" relative="1" as="geometry">
            <mxPoint x="1850" y="1040" as="sourcePoint" />
            <mxPoint x="1920" y="972" as="targetPoint" />
          </mxGeometry>
        </mxCell>
        <mxCell id="SGO69OwYdjPEWRcPBe-a-40" value="" style="endArrow=none;html=1;rounded=0;entryX=0;entryY=0.5;entryDx=0;entryDy=0;exitX=1;exitY=0.5;exitDx=0;exitDy=0;fillColor=#d5e8d4;strokeColor=#82b366;" edge="1" parent="1" source="SGO69OwYdjPEWRcPBe-a-18" target="SGO69OwYdjPEWRcPBe-a-33">
          <mxGeometry width="50" height="50" relative="1" as="geometry">
            <mxPoint x="1860" y="1080" as="sourcePoint" />
            <mxPoint x="1930" y="1012" as="targetPoint" />
          </mxGeometry>
        </mxCell>
        <mxCell id="SGO69OwYdjPEWRcPBe-a-41" value="" style="endArrow=none;html=1;rounded=0;entryX=0;entryY=0.5;entryDx=0;entryDy=0;exitX=1;exitY=0.5;exitDx=0;exitDy=0;fillColor=#d5e8d4;strokeColor=#82b366;" edge="1" parent="1" source="SGO69OwYdjPEWRcPBe-a-19" target="SGO69OwYdjPEWRcPBe-a-34">
          <mxGeometry width="50" height="50" relative="1" as="geometry">
            <mxPoint x="1850" y="1110" as="sourcePoint" />
            <mxPoint x="1920" y="1042" as="targetPoint" />
          </mxGeometry>
        </mxCell>
        <mxCell id="SGO69OwYdjPEWRcPBe-a-42" value="" style="endArrow=none;html=1;rounded=0;entryX=0;entryY=0.5;entryDx=0;entryDy=0;exitX=1;exitY=0.5;exitDx=0;exitDy=0;fillColor=#d5e8d4;strokeColor=#82b366;" edge="1" parent="1" source="SGO69OwYdjPEWRcPBe-a-20" target="SGO69OwYdjPEWRcPBe-a-36">
          <mxGeometry width="50" height="50" relative="1" as="geometry">
            <mxPoint x="1860" y="1150" as="sourcePoint" />
            <mxPoint x="1930" y="1082" as="targetPoint" />
          </mxGeometry>
        </mxCell>
        <mxCell id="SGO69OwYdjPEWRcPBe-a-43" value="&lt;div&gt;parser::descriptive::summary&lt;/div&gt;" style="rounded=1;whiteSpace=wrap;html=1;fillColor=#e1d5e7;strokeColor=#9673a6;" vertex="1" parent="1">
          <mxGeometry x="1890" y="1277.5" width="190" height="30" as="geometry" />
        </mxCell>
        <mxCell id="SGO69OwYdjPEWRcPBe-a-44" value="&lt;div&gt;parser::descriptive::summary&lt;/div&gt;" style="rounded=1;whiteSpace=wrap;html=1;fillColor=#e1d5e7;strokeColor=#9673a6;" vertex="1" parent="1">
          <mxGeometry x="1890" y="1390" width="190" height="30" as="geometry" />
        </mxCell>
        <mxCell id="SGO69OwYdjPEWRcPBe-a-45" value="" style="endArrow=none;html=1;rounded=0;entryX=0;entryY=0.5;entryDx=0;entryDy=0;exitX=1;exitY=0.5;exitDx=0;exitDy=0;fillColor=#e1d5e7;strokeColor=#9673a6;" edge="1" parent="1" source="SGO69OwYdjPEWRcPBe-a-21" target="SGO69OwYdjPEWRcPBe-a-43">
          <mxGeometry width="50" height="50" relative="1" as="geometry">
            <mxPoint x="1680" y="1300" as="sourcePoint" />
            <mxPoint x="1730" y="1250" as="targetPoint" />
          </mxGeometry>
        </mxCell>
        <mxCell id="SGO69OwYdjPEWRcPBe-a-46" value="" style="endArrow=none;html=1;rounded=0;entryX=0;entryY=0.5;entryDx=0;entryDy=0;exitX=1.001;exitY=0.456;exitDx=0;exitDy=0;fillColor=#e1d5e7;strokeColor=#9673a6;exitPerimeter=0;" edge="1" parent="1" source="SGO69OwYdjPEWRcPBe-a-22" target="SGO69OwYdjPEWRcPBe-a-44">
          <mxGeometry width="50" height="50" relative="1" as="geometry">
            <mxPoint x="1860" y="1390" as="sourcePoint" />
            <mxPoint x="1930" y="1387" as="targetPoint" />
          </mxGeometry>
        </mxCell>
        <mxCell id="SGO69OwYdjPEWRcPBe-a-47" value="&lt;div&gt;parser::change::last_modified&lt;/div&gt;" style="rounded=1;whiteSpace=wrap;html=1;fillColor=#ffe6cc;strokeColor=#d79b00;" vertex="1" parent="1">
          <mxGeometry x="1890" y="1650" width="190" height="30" as="geometry" />
        </mxCell>
        <mxCell id="SGO69OwYdjPEWRcPBe-a-48" value="&lt;div&gt;parser::descriptive::location&lt;/div&gt;" style="rounded=1;whiteSpace=wrap;html=1;fillColor=#ffe6cc;strokeColor=#d79b00;" vertex="1" parent="1">
          <mxGeometry x="1890" y="1700" width="190" height="30" as="geometry" />
        </mxCell>
        <mxCell id="SGO69OwYdjPEWRcPBe-a-50" value="&lt;div&gt;parser::descriptive::status&lt;/div&gt;" style="rounded=1;whiteSpace=wrap;html=1;fillColor=#ffe6cc;strokeColor=#d79b00;" vertex="1" parent="1">
          <mxGeometry x="1890" y="1740" width="190" height="30" as="geometry" />
        </mxCell>
        <mxCell id="SGO69OwYdjPEWRcPBe-a-51" value="&lt;div&gt;parser::descriptive::percent_complete&lt;/div&gt;" style="rounded=1;whiteSpace=wrap;html=1;fillColor=#ffe6cc;strokeColor=#d79b00;" vertex="1" parent="1">
          <mxGeometry x="1890" y="1785" width="190" height="30" as="geometry" />
        </mxCell>
        <mxCell id="SGO69OwYdjPEWRcPBe-a-52" value="&lt;div&gt;parser::datetime::completed&lt;/div&gt;" style="rounded=1;whiteSpace=wrap;html=1;fillColor=#ffe6cc;strokeColor=#d79b00;" vertex="1" parent="1">
          <mxGeometry x="1890" y="1830" width="190" height="30" as="geometry" />
        </mxCell>
        <mxCell id="SGO69OwYdjPEWRcPBe-a-53" value="" style="endArrow=none;html=1;rounded=0;entryX=0;entryY=0.5;entryDx=0;entryDy=0;exitX=1;exitY=0.5;exitDx=0;exitDy=0;fillColor=#ffe6cc;strokeColor=#d79b00;" edge="1" parent="1" source="SGO69OwYdjPEWRcPBe-a-23" target="SGO69OwYdjPEWRcPBe-a-47">
          <mxGeometry width="50" height="50" relative="1" as="geometry">
            <mxPoint x="1490" y="1780" as="sourcePoint" />
            <mxPoint x="1540" y="1730" as="targetPoint" />
          </mxGeometry>
        </mxCell>
        <mxCell id="SGO69OwYdjPEWRcPBe-a-54" value="" style="endArrow=none;html=1;rounded=0;entryX=0;entryY=0.5;entryDx=0;entryDy=0;exitX=1;exitY=0.5;exitDx=0;exitDy=0;fillColor=#ffe6cc;strokeColor=#d79b00;" edge="1" parent="1" source="SGO69OwYdjPEWRcPBe-a-24" target="SGO69OwYdjPEWRcPBe-a-48">
          <mxGeometry width="50" height="50" relative="1" as="geometry">
            <mxPoint x="1860" y="1730" as="sourcePoint" />
            <mxPoint x="1930" y="1707" as="targetPoint" />
          </mxGeometry>
        </mxCell>
        <mxCell id="SGO69OwYdjPEWRcPBe-a-55" value="" style="endArrow=none;html=1;rounded=0;exitX=1;exitY=0.5;exitDx=0;exitDy=0;fillColor=#ffe6cc;strokeColor=#d79b00;entryX=0;entryY=0.5;entryDx=0;entryDy=0;" edge="1" parent="1" source="SGO69OwYdjPEWRcPBe-a-25" target="SGO69OwYdjPEWRcPBe-a-50">
          <mxGeometry width="50" height="50" relative="1" as="geometry">
            <mxPoint x="1860" y="1760" as="sourcePoint" />
            <mxPoint x="1890" y="1750" as="targetPoint" />
          </mxGeometry>
        </mxCell>
        <mxCell id="SGO69OwYdjPEWRcPBe-a-56" value="" style="endArrow=none;html=1;rounded=0;entryX=0;entryY=0.5;entryDx=0;entryDy=0;exitX=1;exitY=0.5;exitDx=0;exitDy=0;fillColor=#ffe6cc;strokeColor=#d79b00;" edge="1" parent="1" source="SGO69OwYdjPEWRcPBe-a-26" target="SGO69OwYdjPEWRcPBe-a-51">
          <mxGeometry width="50" height="50" relative="1" as="geometry">
            <mxPoint x="1840" y="1810" as="sourcePoint" />
            <mxPoint x="1910" y="1787" as="targetPoint" />
          </mxGeometry>
        </mxCell>
        <mxCell id="SGO69OwYdjPEWRcPBe-a-57" value="" style="endArrow=none;html=1;rounded=0;entryX=0;entryY=0.5;entryDx=0;entryDy=0;exitX=1;exitY=0.5;exitDx=0;exitDy=0;fillColor=#ffe6cc;strokeColor=#d79b00;" edge="1" parent="1" source="SGO69OwYdjPEWRcPBe-a-27" target="SGO69OwYdjPEWRcPBe-a-52">
          <mxGeometry width="50" height="50" relative="1" as="geometry">
            <mxPoint x="1850" y="1840" as="sourcePoint" />
            <mxPoint x="1920" y="1817" as="targetPoint" />
          </mxGeometry>
        </mxCell>
        <mxCell id="SGO69OwYdjPEWRcPBe-a-58" value="&lt;div&gt;parser::datetime::transp&lt;/div&gt;" style="rounded=1;whiteSpace=wrap;html=1;fillColor=#dae8fc;strokeColor=#6c8ebf;" vertex="1" parent="1">
          <mxGeometry x="1890" y="2050" width="190" height="30" as="geometry" />
        </mxCell>
        <mxCell id="SGO69OwYdjPEWRcPBe-a-59" value="&lt;div&gt;parser::change::sequence&lt;/div&gt;" style="rounded=1;whiteSpace=wrap;html=1;fillColor=#dae8fc;strokeColor=#6c8ebf;" vertex="1" parent="1">
          <mxGeometry x="1890" y="2095" width="190" height="30" as="geometry" />
        </mxCell>
        <mxCell id="SGO69OwYdjPEWRcPBe-a-60" value="" style="endArrow=none;html=1;rounded=0;entryX=0;entryY=0.5;entryDx=0;entryDy=0;exitX=1;exitY=0.5;exitDx=0;exitDy=0;fillColor=#dae8fc;strokeColor=#6c8ebf;" edge="1" parent="1" source="SGO69OwYdjPEWRcPBe-a-28" target="SGO69OwYdjPEWRcPBe-a-58">
          <mxGeometry width="50" height="50" relative="1" as="geometry">
            <mxPoint x="1490" y="1820" as="sourcePoint" />
            <mxPoint x="1540" y="1770" as="targetPoint" />
          </mxGeometry>
        </mxCell>
        <mxCell id="SGO69OwYdjPEWRcPBe-a-61" value="" style="endArrow=none;html=1;rounded=0;entryX=0;entryY=0.5;entryDx=0;entryDy=0;exitX=1;exitY=0.5;exitDx=0;exitDy=0;fillColor=#dae8fc;strokeColor=#6c8ebf;" edge="1" parent="1" source="SGO69OwYdjPEWRcPBe-a-29" target="SGO69OwYdjPEWRcPBe-a-59">
          <mxGeometry width="50" height="50" relative="1" as="geometry">
            <mxPoint x="1860" y="2140" as="sourcePoint" />
            <mxPoint x="1930" y="2122" as="targetPoint" />
          </mxGeometry>
        </mxCell>
        <mxCell id="SGO69OwYdjPEWRcPBe-a-62" value="" style="rounded=0;whiteSpace=wrap;html=1;fillColor=none;" vertex="1" parent="1">
          <mxGeometry x="-150" y="1190" width="770" height="330" as="geometry" />
        </mxCell>
        <mxCell id="SGO69OwYdjPEWRcPBe-a-64" value="" style="endArrow=none;html=1;rounded=0;exitX=1;exitY=0.5;exitDx=0;exitDy=0;entryX=0;entryY=0.5;entryDx=0;entryDy=0;" edge="1" parent="1" source="SGO69OwYdjPEWRcPBe-a-66" target="SGO69OwYdjPEWRcPBe-a-62">
          <mxGeometry width="50" height="50" relative="1" as="geometry">
            <mxPoint x="-940" y="1007.5" as="sourcePoint" />
            <mxPoint x="-570" y="1042.5" as="targetPoint" />
          </mxGeometry>
        </mxCell>
        <mxCell id="SGO69OwYdjPEWRcPBe-a-66" value="parser::content_lines" style="rounded=1;whiteSpace=wrap;html=1;" vertex="1" parent="1">
          <mxGeometry x="-430" y="1340" width="170" height="30" as="geometry" />
        </mxCell>
        <mxCell id="SGO69OwYdjPEWRcPBe-a-67" value="UID:19970901T130000Z-123405@example.com&lt;br style=&quot;font-size: 21px;&quot;&gt;DTSTAMP:19970901T130000Z&lt;br style=&quot;font-size: 21px;&quot;&gt;DTSTART;TZID=&quot;Western/Central Europe&quot;;VALUE=DATE-TIME:20211101T160000&lt;br style=&quot;font-size: 21px;&quot;&gt;SUMMARY:Staff meeting minutes&lt;br style=&quot;font-size: 21px;&quot;&gt;DESCRIPTION:1. Staff meeting: Participants include Joe\,&lt;br style=&quot;font-size: 21px;&quot;&gt;&amp;nbsp;Lisa\, and Bob. Aurora project plans were reviewed.&lt;br style=&quot;font-size: 21px;&quot;&gt;&amp;nbsp;There is currently no budget reserves for this project.&lt;br style=&quot;font-size: 21px;&quot;&gt;&amp;nbsp;Lisa will escalate to management. Next meeting on Tuesday.\n&lt;br style=&quot;font-size: 21px;&quot;&gt;&amp;nbsp;2. Telephone Conference: ABC Corp. sales representative&lt;br style=&quot;font-size: 21px;&quot;&gt;&amp;nbsp;called to discuss new printer. Promised to get us a demo by&lt;br style=&quot;font-size: 21px;&quot;&gt;&amp;nbsp;Friday.\n3. Henry Miller (Handsoff Insurance): Car was&lt;br style=&quot;font-size: 21px;&quot;&gt;&amp;nbsp;totaled by tree. Is looking into a loaner car. 555-2323&lt;br style=&quot;font-size: 21px;&quot;&gt;&amp;nbsp;(tel)." style="rounded=0;whiteSpace=wrap;html=1;fillColor=none;fontSize=21;align=left;spacingLeft=12;" vertex="1" parent="1">
          <mxGeometry x="-1310" y="1160" width="800" height="380" as="geometry" />
        </mxCell>
        <mxCell id="SGO69OwYdjPEWRcPBe-a-68" value="" style="endArrow=none;html=1;rounded=0;entryX=0;entryY=0.5;entryDx=0;entryDy=0;" edge="1" parent="1" source="SGO69OwYdjPEWRcPBe-a-67" target="SGO69OwYdjPEWRcPBe-a-66">
          <mxGeometry width="50" height="50" relative="1" as="geometry">
            <mxPoint x="-750" y="1047.5" as="sourcePoint" />
            <mxPoint x="-700" y="997.5" as="targetPoint" />
          </mxGeometry>
        </mxCell>
        <mxCell id="SGO69OwYdjPEWRcPBe-a-72" value="" style="rounded=0;whiteSpace=wrap;html=1;fillColor=none;" vertex="1" parent="1">
          <mxGeometry x="-1300" y="1230" width="780" height="30" as="geometry" />
        </mxCell>
        <mxCell id="SGO69OwYdjPEWRcPBe-a-73" value="" style="rounded=0;whiteSpace=wrap;html=1;fillColor=none;" vertex="1" parent="1">
          <mxGeometry x="-1300" y="1280" width="780" height="240" as="geometry" />
        </mxCell>
        <mxCell id="SGO69OwYdjPEWRcPBe-a-74" value="parser::content_line" style="rounded=1;whiteSpace=wrap;html=1;" vertex="1" parent="1">
          <mxGeometry x="-1520" y="1230" width="170" height="30" as="geometry" />
        </mxCell>
        <mxCell id="SGO69OwYdjPEWRcPBe-a-75" value="parser::content_line" style="rounded=1;whiteSpace=wrap;html=1;" vertex="1" parent="1">
          <mxGeometry x="-1520" y="1375" width="170" height="30" as="geometry" />
        </mxCell>
        <mxCell id="SGO69OwYdjPEWRcPBe-a-77" value="" style="endArrow=none;html=1;rounded=0;entryX=0;entryY=0.5;entryDx=0;entryDy=0;exitX=1;exitY=0.5;exitDx=0;exitDy=0;" edge="1" parent="1" source="SGO69OwYdjPEWRcPBe-a-74" target="SGO69OwYdjPEWRcPBe-a-72">
          <mxGeometry width="50" height="50" relative="1" as="geometry">
            <mxPoint x="-1160" y="1280" as="sourcePoint" />
            <mxPoint x="-1095" y="1280" as="targetPoint" />
          </mxGeometry>
        </mxCell>
        <mxCell id="SGO69OwYdjPEWRcPBe-a-78" value="" style="endArrow=none;html=1;rounded=0;entryX=-0.001;entryY=0.469;entryDx=0;entryDy=0;exitX=1;exitY=0.5;exitDx=0;exitDy=0;entryPerimeter=0;" edge="1" parent="1" source="SGO69OwYdjPEWRcPBe-a-75" target="SGO69OwYdjPEWRcPBe-a-73">
          <mxGeometry width="50" height="50" relative="1" as="geometry">
            <mxPoint x="-1200" y="1310" as="sourcePoint" />
            <mxPoint x="-1135" y="1310" as="targetPoint" />
          </mxGeometry>
        </mxCell>
        <mxCell id="SGO69OwYdjPEWRcPBe-a-79" value="DTSTART;TZID=&quot;Western/Central Europe&quot;;VALUE=DATE-TIME:20211101T160000" style="rounded=0;whiteSpace=wrap;html=1;fontSize=21;align=left;spacingLeft=12;fillColor=none;strokeColor=none;" vertex="1" parent="1">
          <mxGeometry x="-2365" y="1220" width="800" height="50" as="geometry" />
        </mxCell>
        <mxCell id="SGO69OwYdjPEWRcPBe-a-82" value="DESCRIPTION:1. Staff meeting: Participants include Joe\,&lt;br style=&quot;font-size: 21px;&quot;&gt;&amp;nbsp;Lisa\, and Bob. Aurora project plans were reviewed.&lt;br style=&quot;font-size: 21px;&quot;&gt;&amp;nbsp;There is currently no budget reserves for this project.&lt;br style=&quot;font-size: 21px;&quot;&gt;&amp;nbsp;Lisa will escalate to management. Next meeting on Tuesday.\n&lt;br style=&quot;font-size: 21px;&quot;&gt;&amp;nbsp;2. Telephone Conference: ABC Corp. sales representative&lt;br style=&quot;font-size: 21px;&quot;&gt;&amp;nbsp;called to discuss new printer. Promised to get us a demo by&lt;br style=&quot;font-size: 21px;&quot;&gt;&amp;nbsp;Friday.\n3. Henry Miller (Handsoff Insurance): Car was&lt;br style=&quot;font-size: 21px;&quot;&gt;&amp;nbsp;totaled by tree. Is looking into a loaner car. 555-2323&lt;br style=&quot;font-size: 21px;&quot;&gt;&amp;nbsp;(tel)." style="rounded=0;whiteSpace=wrap;html=1;fontSize=21;align=left;spacingLeft=12;fillColor=none;strokeColor=none;" vertex="1" parent="1">
          <mxGeometry x="-2215" y="1295" width="610" height="260" as="geometry" />
        </mxCell>
        <mxCell id="SGO69OwYdjPEWRcPBe-a-83" value="" style="endArrow=none;html=1;rounded=0;entryX=0;entryY=0.5;entryDx=0;entryDy=0;exitX=1;exitY=0.5;exitDx=0;exitDy=0;" edge="1" parent="1" source="SGO69OwYdjPEWRcPBe-a-109" target="SGO69OwYdjPEWRcPBe-a-75">
          <mxGeometry width="50" height="50" relative="1" as="geometry">
            <mxPoint x="-1485" y="1340" as="sourcePoint" />
            <mxPoint x="-1435" y="1290" as="targetPoint" />
          </mxGeometry>
        </mxCell>
        <mxCell id="SGO69OwYdjPEWRcPBe-a-84" value="" style="rounded=0;whiteSpace=wrap;html=1;fillColor=none;" vertex="1" parent="1">
          <mxGeometry x="-2355" y="1230" width="100" height="30" as="geometry" />
        </mxCell>
        <mxCell id="SGO69OwYdjPEWRcPBe-a-86" value="" style="rounded=0;whiteSpace=wrap;html=1;fillColor=none;" vertex="1" parent="1">
          <mxGeometry x="-2255" y="1230" width="490" height="30" as="geometry" />
        </mxCell>
        <mxCell id="SGO69OwYdjPEWRcPBe-a-87" value="" style="rounded=0;whiteSpace=wrap;html=1;fillColor=none;" vertex="1" parent="1">
          <mxGeometry x="-1765" y="1230" width="190" height="30" as="geometry" />
        </mxCell>
        <mxCell id="SGO69OwYdjPEWRcPBe-a-89" value="parser::key" style="rounded=1;whiteSpace=wrap;html=1;" vertex="1" parent="1">
          <mxGeometry x="-2390" y="1120" width="170" height="30" as="geometry" />
        </mxCell>
        <mxCell id="SGO69OwYdjPEWRcPBe-a-90" value="" style="endArrow=none;html=1;rounded=0;entryX=0.5;entryY=1;entryDx=0;entryDy=0;exitX=0.5;exitY=0;exitDx=0;exitDy=0;" edge="1" parent="1" source="SGO69OwYdjPEWRcPBe-a-84" target="SGO69OwYdjPEWRcPBe-a-89">
          <mxGeometry width="50" height="50" relative="1" as="geometry">
            <mxPoint x="-1825" y="1340" as="sourcePoint" />
            <mxPoint x="-1775" y="1290" as="targetPoint" />
          </mxGeometry>
        </mxCell>
        <mxCell id="SGO69OwYdjPEWRcPBe-a-91" value="parser::params" style="rounded=1;whiteSpace=wrap;html=1;" vertex="1" parent="1">
          <mxGeometry x="-2095" y="1120" width="170" height="30" as="geometry" />
        </mxCell>
        <mxCell id="SGO69OwYdjPEWRcPBe-a-92" value="" style="endArrow=none;html=1;rounded=0;entryX=0.5;entryY=1;entryDx=0;entryDy=0;exitX=0.5;exitY=0;exitDx=0;exitDy=0;" edge="1" target="SGO69OwYdjPEWRcPBe-a-91" parent="1" source="SGO69OwYdjPEWRcPBe-a-86">
          <mxGeometry width="50" height="50" relative="1" as="geometry">
            <mxPoint x="-1657" y="1230" as="sourcePoint" />
            <mxPoint x="-1515" y="1310" as="targetPoint" />
          </mxGeometry>
        </mxCell>
        <mxCell id="SGO69OwYdjPEWRcPBe-a-93" value="parser::value" style="rounded=1;whiteSpace=wrap;html=1;" vertex="1" parent="1">
          <mxGeometry x="-1735" y="1120" width="170" height="30" as="geometry" />
        </mxCell>
        <mxCell id="SGO69OwYdjPEWRcPBe-a-94" value="" style="endArrow=none;html=1;rounded=0;entryX=0.5;entryY=1;entryDx=0;entryDy=0;exitX=0.612;exitY=0.067;exitDx=0;exitDy=0;exitPerimeter=0;" edge="1" target="SGO69OwYdjPEWRcPBe-a-93" parent="1" source="SGO69OwYdjPEWRcPBe-a-87">
          <mxGeometry width="50" height="50" relative="1" as="geometry">
            <mxPoint x="-1397" y="1230" as="sourcePoint" />
            <mxPoint x="-1255" y="1310" as="targetPoint" />
          </mxGeometry>
        </mxCell>
        <mxCell id="SGO69OwYdjPEWRcPBe-a-95" value="TZID=&quot;Western/Central Europe&quot;;VALUE=DATE-TIME" style="rounded=0;whiteSpace=wrap;html=1;fontSize=21;align=left;spacingLeft=12;fillColor=none;strokeColor=none;" vertex="1" parent="1">
          <mxGeometry x="-2265" y="1000" width="510" height="50" as="geometry" />
        </mxCell>
        <mxCell id="SGO69OwYdjPEWRcPBe-a-96" value="" style="endArrow=none;html=1;rounded=0;entryX=0.797;entryY=1.062;entryDx=0;entryDy=0;entryPerimeter=0;" edge="1" parent="1" source="SGO69OwYdjPEWRcPBe-a-91" target="SGO69OwYdjPEWRcPBe-a-98">
          <mxGeometry width="50" height="50" relative="1" as="geometry">
            <mxPoint x="-1815" y="1170" as="sourcePoint" />
            <mxPoint x="-1765" y="1120" as="targetPoint" />
          </mxGeometry>
        </mxCell>
        <mxCell id="SGO69OwYdjPEWRcPBe-a-98" value="" style="rounded=0;whiteSpace=wrap;html=1;fillColor=none;" vertex="1" parent="1">
          <mxGeometry x="-2255" y="1010" width="305" height="30" as="geometry" />
        </mxCell>
        <mxCell id="SGO69OwYdjPEWRcPBe-a-99" value="" style="rounded=0;whiteSpace=wrap;html=1;fillColor=none;" vertex="1" parent="1">
          <mxGeometry x="-1950" y="1010" width="190" height="30" as="geometry" />
        </mxCell>
        <mxCell id="SGO69OwYdjPEWRcPBe-a-100" value="parser::param" style="rounded=1;whiteSpace=wrap;html=1;" vertex="1" parent="1">
          <mxGeometry x="-2187.5" y="920" width="170" height="30" as="geometry" />
        </mxCell>
        <mxCell id="SGO69OwYdjPEWRcPBe-a-101" value="parser::param" style="rounded=1;whiteSpace=wrap;html=1;" vertex="1" parent="1">
          <mxGeometry x="-1940" y="920" width="170" height="30" as="geometry" />
        </mxCell>
        <mxCell id="SGO69OwYdjPEWRcPBe-a-102" value="" style="endArrow=none;html=1;rounded=0;entryX=0.5;entryY=1;entryDx=0;entryDy=0;" edge="1" parent="1" source="SGO69OwYdjPEWRcPBe-a-99" target="SGO69OwYdjPEWRcPBe-a-101">
          <mxGeometry width="50" height="50" relative="1" as="geometry">
            <mxPoint x="-2020" y="1040" as="sourcePoint" />
            <mxPoint x="-1970" y="990" as="targetPoint" />
          </mxGeometry>
        </mxCell>
        <mxCell id="SGO69OwYdjPEWRcPBe-a-103" value="" style="endArrow=none;html=1;rounded=0;entryX=0.45;entryY=1.002;entryDx=0;entryDy=0;entryPerimeter=0;exitX=0.472;exitY=-0.033;exitDx=0;exitDy=0;exitPerimeter=0;" edge="1" parent="1" source="SGO69OwYdjPEWRcPBe-a-98" target="SGO69OwYdjPEWRcPBe-a-100">
          <mxGeometry width="50" height="50" relative="1" as="geometry">
            <mxPoint x="-2190" y="1015" as="sourcePoint" />
            <mxPoint x="-2140" y="965" as="targetPoint" />
          </mxGeometry>
        </mxCell>
        <mxCell id="SGO69OwYdjPEWRcPBe-a-106" value="" style="endArrow=none;html=1;rounded=0;entryX=0.45;entryY=1.002;entryDx=0;entryDy=0;entryPerimeter=0;exitX=0.459;exitY=-0.016;exitDx=0;exitDy=0;exitPerimeter=0;" edge="1" target="SGO69OwYdjPEWRcPBe-a-107" parent="1" source="SGO69OwYdjPEWRcPBe-a-100">
          <mxGeometry width="50" height="50" relative="1" as="geometry">
            <mxPoint x="-2071" y="899" as="sourcePoint" />
            <mxPoint x="-2100" y="855" as="targetPoint" />
          </mxGeometry>
        </mxCell>
        <mxCell id="SGO69OwYdjPEWRcPBe-a-107" value="parser::quoted_param" style="rounded=1;whiteSpace=wrap;html=1;" vertex="1" parent="1">
          <mxGeometry x="-2187.5" y="830" width="170" height="30" as="geometry" />
        </mxCell>
        <mxCell id="SGO69OwYdjPEWRcPBe-a-109" value="" style="rounded=0;whiteSpace=wrap;html=1;fillColor=none;" vertex="1" parent="1">
          <mxGeometry x="-2210" y="1310" width="600" height="230" as="geometry" />
        </mxCell>
        <mxCell id="SGO69OwYdjPEWRcPBe-a-108" value="" style="rounded=0;whiteSpace=wrap;html=1;fillColor=none;" vertex="1" parent="1">
          <mxGeometry x="-2210" y="1310" width="150" height="30" as="geometry" />
        </mxCell>
        <mxCell id="SGO69OwYdjPEWRcPBe-a-110" value="" style="endArrow=none;html=1;rounded=0;entryX=0;entryY=0.5;entryDx=0;entryDy=0;exitX=1;exitY=0.5;exitDx=0;exitDy=0;" edge="1" parent="1" source="SGO69OwYdjPEWRcPBe-a-111" target="SGO69OwYdjPEWRcPBe-a-108">
          <mxGeometry width="50" height="50" relative="1" as="geometry">
            <mxPoint x="-2290" y="1340" as="sourcePoint" />
            <mxPoint x="-2255" y="1340" as="targetPoint" />
          </mxGeometry>
        </mxCell>
        <mxCell id="SGO69OwYdjPEWRcPBe-a-111" value="parser::key" style="rounded=1;whiteSpace=wrap;html=1;" vertex="1" parent="1">
          <mxGeometry x="-2440" y="1310" width="170" height="30" as="geometry" />
        </mxCell>
        <mxCell id="SGO69OwYdjPEWRcPBe-a-112" value="parser::value" style="rounded=1;whiteSpace=wrap;html=1;" vertex="1" parent="1">
          <mxGeometry x="-2000" y="1620" width="170" height="30" as="geometry" />
        </mxCell>
        <mxCell id="SGO69OwYdjPEWRcPBe-a-113" value="" style="endArrow=none;html=1;rounded=0;exitX=0.5;exitY=0;exitDx=0;exitDy=0;entryX=0.5;entryY=1;entryDx=0;entryDy=0;" edge="1" parent="1" source="SGO69OwYdjPEWRcPBe-a-112" target="SGO69OwYdjPEWRcPBe-a-109">
          <mxGeometry width="50" height="50" relative="1" as="geometry">
            <mxPoint x="-2050" y="1480" as="sourcePoint" />
            <mxPoint x="-2000" y="1430" as="targetPoint" />
          </mxGeometry>
        </mxCell>
        <mxCell id="SGO69OwYdjPEWRcPBe-a-114" value="1. Staff meeting: Participants include Joe\,&lt;br style=&quot;font-size: 21px;&quot;&gt;&amp;nbsp;Lisa\, and Bob. Aurora project plans were reviewed.&lt;br style=&quot;font-size: 21px;&quot;&gt;&amp;nbsp;There is currently no budget reserves for this project.&lt;br style=&quot;font-size: 21px;&quot;&gt;&amp;nbsp;Lisa will escalate to management. Next meeting on Tuesday.\n&lt;br style=&quot;font-size: 21px;&quot;&gt;&amp;nbsp;2. Telephone Conference: ABC Corp. sales representative&lt;br style=&quot;font-size: 21px;&quot;&gt;&amp;nbsp;called to discuss new printer. Promised to get us a demo by&lt;br style=&quot;font-size: 21px;&quot;&gt;&amp;nbsp;Friday.\n3. Henry Miller (Handsoff Insurance): Car was&lt;br style=&quot;font-size: 21px;&quot;&gt;&amp;nbsp;totaled by tree. Is looking into a loaner car. 555-2323&lt;br style=&quot;font-size: 21px;&quot;&gt;&amp;nbsp;(tel)." style="rounded=0;whiteSpace=wrap;html=1;fontSize=21;align=left;spacingLeft=12;" vertex="1" parent="1">
          <mxGeometry x="-2220" y="1710" width="610" height="260" as="geometry" />
        </mxCell>
        <mxCell id="SGO69OwYdjPEWRcPBe-a-115" value="" style="endArrow=none;html=1;rounded=0;entryX=0.5;entryY=1;entryDx=0;entryDy=0;exitX=0.5;exitY=0;exitDx=0;exitDy=0;" edge="1" parent="1" source="SGO69OwYdjPEWRcPBe-a-114" target="SGO69OwYdjPEWRcPBe-a-112">
          <mxGeometry width="50" height="50" relative="1" as="geometry">
            <mxPoint x="-2050" y="1720" as="sourcePoint" />
            <mxPoint x="-2000" y="1670" as="targetPoint" />
          </mxGeometry>
        </mxCell>
        <mxCell id="SGO69OwYdjPEWRcPBe-a-116" value="" style="rounded=0;whiteSpace=wrap;html=1;fillColor=none;strokeColor=default;" vertex="1" parent="1">
          <mxGeometry x="-2210" y="1900" width="590" height="30" as="geometry" />
        </mxCell>
        <mxCell id="SGO69OwYdjPEWRcPBe-a-117" value="" style="rounded=0;whiteSpace=wrap;html=1;fillColor=none;" vertex="1" parent="1">
          <mxGeometry x="-2200" y="1930" width="40" height="30" as="geometry" />
        </mxCell>
        <mxCell id="SGO69OwYdjPEWRcPBe-a-118" value="" style="rounded=0;whiteSpace=wrap;html=1;fillColor=none;" vertex="1" parent="1">
          <mxGeometry x="-2210" y="1930" width="10" height="30" as="geometry" />
        </mxCell>
        <mxCell id="SGO69OwYdjPEWRcPBe-a-119" value="" style="rounded=0;whiteSpace=wrap;html=1;strokeColor=#FFFFFF;" vertex="1" parent="1">
          <mxGeometry x="-2209" y="1920" width="8" height="20" as="geometry" />
        </mxCell>
        <mxCell id="SGO69OwYdjPEWRcPBe-a-120" value="parser::value_part" style="rounded=1;whiteSpace=wrap;html=1;" vertex="1" parent="1">
          <mxGeometry x="-1850" y="2040" width="170" height="30" as="geometry" />
        </mxCell>
        <mxCell id="SGO69OwYdjPEWRcPBe-a-121" value="parser::value_line" style="rounded=1;whiteSpace=wrap;html=1;" vertex="1" parent="1">
          <mxGeometry x="-2265" y="2040" width="170" height="30" as="geometry" />
        </mxCell>
        <mxCell id="SGO69OwYdjPEWRcPBe-a-122" value="" style="endArrow=none;html=1;rounded=0;exitX=0.5;exitY=0;exitDx=0;exitDy=0;entryX=0.75;entryY=1;entryDx=0;entryDy=0;" edge="1" parent="1" source="SGO69OwYdjPEWRcPBe-a-120" target="SGO69OwYdjPEWRcPBe-a-116">
          <mxGeometry width="50" height="50" relative="1" as="geometry">
            <mxPoint x="-1930" y="1870" as="sourcePoint" />
            <mxPoint x="-1880" y="1820" as="targetPoint" />
          </mxGeometry>
        </mxCell>
        <mxCell id="SGO69OwYdjPEWRcPBe-a-123" value="" style="endArrow=none;html=1;rounded=0;exitX=0.5;exitY=0;exitDx=0;exitDy=0;entryX=0.5;entryY=1;entryDx=0;entryDy=0;" edge="1" parent="1" source="SGO69OwYdjPEWRcPBe-a-121" target="SGO69OwYdjPEWRcPBe-a-117">
          <mxGeometry width="50" height="50" relative="1" as="geometry">
            <mxPoint x="-1930" y="1870" as="sourcePoint" />
            <mxPoint x="-1880" y="1820" as="targetPoint" />
          </mxGeometry>
        </mxCell>
        <mxCell id="SGO69OwYdjPEWRcPBe-a-126" value="" style="endArrow=none;html=1;rounded=0;entryX=0;entryY=0.5;entryDx=0;entryDy=0;exitX=1;exitY=0.5;exitDx=0;exitDy=0;" edge="1" parent="1" source="SGO69OwYdjPEWRcPBe-a-87" target="SGO69OwYdjPEWRcPBe-a-74">
          <mxGeometry width="50" height="50" relative="1" as="geometry">
            <mxPoint x="-1540" y="1320" as="sourcePoint" />
            <mxPoint x="-1490" y="1270" as="targetPoint" />
          </mxGeometry>
        </mxCell>
      </root>
    </mxGraphModel>
  </diagram>
</mxfile>
